<?xml version="1.0" standalone="no"?>
<!DOCTYPE svg PUBLIC "-//W3C//DTD SVG 20010904//EN"
 "http://www.w3.org/TR/2001/REC-SVG-20010904/DTD/svg10.dtd">
<svg version="1.0" xmlns="http://www.w3.org/2000/svg"
 width="512.000000pt" height="512.000000pt" viewBox="0 0 512.000000 512.000000"
 preserveAspectRatio="xMidYMid meet">
<metadata>
Created by potrace 1.11, written by Peter Selinger 2001-2013
</metadata>
<g transform="translate(0.000000,512.000000) scale(0.100000,-0.100000)"
fill="#000000" stroke="none">
<path d="M990 4780 c-24 -18 -25 -23 -28 -159 l-4 -141 1601 0 1601 0 0 123
c0 67 -3 132 -6 145 -15 55 65 52 -1601 52 -1501 0 -1539 -1 -1563 -20z m290
-140 l0 -80 -80 0 -80 0 0 80 0 80 80 0 80 0 0 -80z m320 0 l0 -80 -80 0 -80
0 0 80 0 80 80 0 80 0 0 -80z m320 0 l0 -80 -80 0 -80 0 0 80 0 80 80 0 80 0
0 -80z"/>
<path d="M962 3460 c3 -810 4 -860 21 -877 17 -17 95 -18 1560 -21 848 -1
1552 0 1564 3 54 13 53 -6 53 910 l0 845 -1600 0 -1600 0 2 -860z m1794 513
c31 -20 63 -80 58 -110 -8 -45 -11 -58 -22 -86 -7 -16 -12 -34 -12 -41 0 -6
-5 -17 -12 -24 -7 -7 -9 -12 -6 -12 4 0 1 -15 -7 -34 -8 -18 -11 -36 -8 -40 4
-3 1 -6 -6 -6 -7 0 -10 -4 -7 -8 3 -5 -1 -20 -9 -35 -8 -15 -12 -27 -9 -27 2
0 -2 -15 -10 -34 -8 -19 -12 -37 -8 -40 3 -3 -1 -6 -8 -6 -7 0 -11 -3 -8 -6 3
-3 -4 -33 -17 -67 -12 -34 -23 -66 -25 -72 -1 -5 -6 -20 -11 -33 -5 -13 -9
-29 -9 -36 0 -6 -5 -17 -12 -24 -7 -7 -9 -12 -6 -12 3 0 -4 -29 -17 -65 -13
-36 -21 -65 -18 -65 3 0 0 -6 -6 -13 -6 -8 -8 -17 -4 -20 3 -4 1 -7 -5 -7 -7
0 -12 -6 -12 -13 0 -24 -57 -66 -92 -68 -91 -6 -144 42 -141 126 2 55 4 65 22
110 7 17 14 37 16 45 2 8 8 27 14 43 6 15 7 27 3 27 -4 0 -1 4 6 9 7 4 14 18
15 29 1 12 5 22 10 22 4 0 5 5 2 10 -4 6 0 21 8 33 8 12 13 31 11 42 -2 11 2
23 8 26 6 4 12 16 13 26 0 10 5 25 10 33 5 8 10 17 10 20 5 30 19 78 27 88 6
6 7 12 3 12 -4 0 -2 7 5 15 7 8 9 15 4 15 -4 0 -3 5 4 12 7 7 12 21 12 33 0
11 7 31 16 43 8 12 13 22 9 22 -3 0 1 15 8 33 8 17 15 35 15 40 7 39 16 57 29
57 8 0 12 4 8 9 -6 10 34 37 48 33 4 -1 7 2 7 7 0 14 78 3 106 -16z m-667
-118 c29 -9 73 -54 65 -66 -3 -5 0 -9 6 -9 7 0 10 -7 7 -15 -4 -8 -2 -17 4
-20 5 -4 6 -12 2 -18 -4 -7 -8 -16 -9 -22 -5 -31 -11 -41 -31 -57 -11 -10 -26
-18 -33 -18 -6 0 -8 -4 -5 -10 3 -5 -1 -10 -9 -10 -9 0 -16 -4 -16 -10 0 -5
-5 -10 -11 -10 -6 0 -26 -12 -45 -26 -19 -15 -34 -24 -34 -21 0 3 -14 -7 -32
-23 -17 -16 -35 -27 -39 -24 -4 2 -9 -1 -11 -8 -4 -12 143 -118 163 -118 5 0
9 -4 9 -10 0 -5 5 -10 11 -10 18 0 81 -69 74 -80 -3 -6 -1 -10 5 -10 16 0 10
-69 -8 -100 -15 -24 -48 -53 -64 -56 -5 -1 -9 -3 -10 -4 -7 -7 -78 -5 -78 2 0
4 -9 8 -19 8 -11 0 -21 4 -23 8 -3 9 -93 72 -103 72 -6 0 -23 13 -56 43 -10 9
-24 17 -29 17 -6 0 -20 8 -31 18 -10 11 -32 25 -47 33 -15 8 -32 21 -39 29 -7
8 -13 12 -13 8 0 -4 -10 0 -22 10 -61 49 -79 69 -83 87 -2 11 -4 20 -5 20 -7
0 -5 47 2 51 4 3 6 9 3 14 -3 4 13 28 35 51 22 24 40 39 40 34 0 -6 3 -6 8 0
4 6 14 15 23 20 9 6 36 23 60 40 24 16 47 28 52 27 4 -1 7 5 7 14 0 8 4 13 9
9 5 -3 15 0 23 7 24 23 183 127 209 136 26 10 51 9 88 -3z m1021 4 c0 -5 8 -9
18 -9 10 0 28 -9 40 -20 12 -11 25 -20 30 -20 5 0 17 -9 27 -20 10 -11 22 -20
27 -20 5 0 16 -6 23 -12 34 -30 50 -43 52 -41 5 4 63 -32 63 -39 0 -5 7 -8 15
-8 8 0 15 -4 15 -10 0 -5 5 -10 11 -10 6 0 28 -13 49 -30 21 -16 41 -30 45
-30 23 0 61 -69 60 -111 0 -42 -38 -102 -75 -121 -14 -7 -28 -17 -32 -23 -5
-6 -8 -6 -8 0 0 5 -7 -1 -16 -13 -8 -12 -19 -20 -23 -18 -4 3 -17 -4 -29 -14
-12 -11 -26 -20 -32 -20 -5 0 -10 -5 -10 -11 0 -5 -4 -7 -10 -4 -5 3 -10 1
-10 -5 0 -6 -8 -14 -17 -17 -10 -4 -27 -15 -37 -25 -10 -9 -23 -15 -28 -12 -4
3 -8 1 -8 -4 0 -10 -89 -69 -130 -87 -22 -9 -49 -10 -98 -3 -18 2 -72 65 -73
86 0 9 -2 26 -4 37 -5 27 25 85 50 99 11 6 22 14 25 17 3 4 32 23 65 44 33 21
62 41 65 45 8 11 54 35 63 32 9 -3 9 10 -1 23 -11 16 -147 105 -160 105 -7 0
-12 4 -12 9 0 5 -15 18 -33 29 -86 50 -81 176 9 222 32 17 94 23 94 9z"/>
<path d="M2240 2298 l1 -103 57 -38 c31 -21 103 -72 160 -113 l102 -75 39 28
c22 15 94 68 160 116 l121 88 0 99 0 100 -320 0 -320 0 0 -102z"/>
<path d="M1480 2072 c-14 -1 -59 -12 -100 -22 -320 -81 -568 -341 -640 -670
-16 -76 -18 -139 -19 -572 l-2 -488 321 0 320 0 0 483 c0 265 3 492 6 504 9
34 50 56 90 48 64 -12 64 -8 64 -550 l0 -485 230 0 c127 0 230 2 230 4 0 2
-12 59 -26 127 -14 68 -27 131 -29 139 -2 8 -19 92 -38 185 -20 94 -38 181
-41 195 -15 75 -69 334 -81 388 -8 34 -17 74 -20 90 -7 43 -19 102 -64 317
-23 110 -47 226 -53 258 l-12 57 -55 -2 c-31 -1 -67 -4 -81 -6z"/>
<path d="M1780 2073 c0 -5 5 -26 10 -48 5 -22 12 -56 15 -75 3 -19 8 -42 10
-50 2 -8 6 -26 9 -40 2 -14 13 -68 25 -121 11 -53 57 -271 101 -485 45 -214
101 -486 126 -604 25 -118 50 -241 56 -272 12 -62 33 -77 42 -31 5 24 43 289
51 348 5 40 17 130 20 146 2 9 6 40 10 70 3 30 8 65 10 79 6 33 10 62 31 205
9 66 17 126 19 134 1 11 -65 117 -111 180 -1 1 -20 -11 -41 -27 -50 -40 -83
-48 -121 -28 -34 17 -31 8 -128 399 l-56 227 -39 0 c-22 0 -39 -3 -39 -7z"/>
<path d="M2075 1873 c34 -136 56 -207 64 -205 15 3 281 195 281 202 0 4 -131
100 -203 150 -12 8 -35 25 -50 37 -22 18 -41 23 -87 23 l-58 0 53 -207z"/>
<path d="M2843 1977 c-78 -56 -142 -104 -142 -107 -1 -6 265 -199 283 -206 7
-3 13 1 14 8 1 15 -2 4 55 231 l45 177 -57 0 c-55 -1 -59 -2 -198 -103z"/>
<path d="M3187 1778 c-63 -250 -80 -305 -99 -321 -32 -24 -79 -16 -129 24 -22
17 -41 30 -43 28 -22 -28 -109 -166 -109 -174 1 -24 14 -131 18 -145 2 -8 6
-34 9 -57 16 -120 17 -128 31 -223 4 -25 8 -56 10 -70 2 -14 6 -45 10 -70 4
-25 8 -56 10 -70 10 -72 27 -188 30 -210 2 -14 6 -45 10 -70 10 -78 16 -100
28 -100 10 0 93 367 143 630 3 13 12 56 20 95 9 38 18 81 20 95 8 39 12 63 19
90 3 14 10 48 15 75 6 28 12 60 15 73 3 12 7 32 10 45 3 12 9 45 15 72 5 28
12 61 15 75 6 27 12 56 19 93 2 12 12 58 21 102 9 44 18 87 20 96 2 9 13 60
24 113 12 52 21 98 21 101 0 3 -17 5 -39 5 l-38 0 -76 -302z"/>
<path d="M3495 2039 c-13 -72 -14 -80 -36 -179 -11 -52 -23 -105 -25 -117 -2
-13 -6 -33 -8 -45 -2 -13 -14 -68 -26 -123 -12 -55 -24 -111 -27 -125 -2 -13
-11 -56 -19 -95 -9 -38 -18 -81 -20 -95 -4 -21 -8 -41 -19 -90 -12 -54 -15
-70 -20 -95 -7 -44 -12 -70 -34 -170 -25 -112 -58 -270 -65 -310 -8 -43 -12
-61 -35 -169 -12 -52 -21 -98 -21 -101 0 -3 104 -5 230 -5 l230 0 0 455 c0
440 1 456 20 475 41 41 112 33 130 -15 6 -16 10 -204 10 -471 l0 -444 320 0
321 0 -2 483 c0 265 -5 509 -10 542 -28 172 -119 346 -248 476 -152 152 -340
238 -555 255 l-83 6 -8 -43z"/>
<path d="M2545 1757 c-11 -6 -25 -15 -32 -21 -6 -6 -47 -36 -92 -66 -44 -30
-80 -59 -81 -64 0 -6 23 -45 51 -88 l52 -78 117 0 117 0 53 80 c58 89 58 91
-10 136 -40 27 -85 59 -127 91 -23 17 -33 19 -48 10z"/>
<path d="M2469 1273 c0 -5 -2 -19 -5 -33 -6 -37 -33 -219 -39 -265 -2 -22 -10
-74 -16 -115 -6 -41 -12 -88 -14 -105 -9 -60 -36 -246 -40 -263 -1 -9 -6 -44
-9 -77 -4 -33 -9 -68 -12 -77 -5 -17 10 -18 220 -18 124 0 227 3 230 8 2 4 0
28 -4 54 -5 25 -12 68 -15 94 -3 27 -7 56 -10 64 -2 8 -7 42 -10 75 -3 33 -8
67 -10 75 -2 8 -7 38 -10 65 -15 117 -15 115 -31 215 -4 25 -8 56 -9 70 -1 14
-5 39 -8 55 -4 17 -9 53 -12 80 -3 28 -8 62 -11 78 l-6 27 -89 0 c-49 0 -89
-3 -90 -7z"/>
</g>
</svg>
